<svg xmlns="http://www.w3.org/2000/svg" width="780" height="560" viewBox="0 0 780 560" fill="none" role="img" aria-labelledby="title desc">
  <title id="title">LocalGen generated visual</title>
  <desc id="desc">Automatically generated visual asset for the LocalGen website.</desc>
  <defs>
    <linearGradient id="bgGlow" x1="0" x2="1" y1="0" y2="1">
      <stop offset="0%" stop-color="#12213a" />
      <stop offset="100%" stop-color="#0a1322" />
    </linearGradient>
    <linearGradient id="accentLine" x1="0" x2="1" y1="0" y2="0">
      <stop offset="0%" stop-color="#4fd1f5" />
      <stop offset="100%" stop-color="#8b5cf6" />
    </linearGradient>
    <linearGradient id="accentArea" x1="0" x2="0" y1="0" y2="1">
      <stop offset="0%" stop-color="rgba(110,231,255,0.32)" />
      <stop offset="100%" stop-color="rgba(110,231,255,0.02)" />
    </linearGradient>
    <filter id="softShadow" x="-20%" y="-20%" width="140%" height="140%">
      <feDropShadow dx="0" dy="12" stdDeviation="16" flood-color="#020617" flood-opacity="0.42" />
    </filter>
    
  </defs>
  
  <rect width="780" height="560" rx="32" fill="url(#bgGlow)" />
  <circle cx="652" cy="86" r="104" fill="rgba(251,191,36,0.09)" />
  <circle cx="118" cy="432" r="148" fill="rgba(139,92,246,0.08)" />
  <g filter="url(#softShadow)"><rect x="22" y="22" width="736" height="516" rx="28" fill="#0f1c31" stroke="rgba(255,255,255,0.12)" stroke-width="1" /></g>
  <text x="36" y="116" font-size="24" font-weight="700" fill="#eff6ff">Built-in bot spectrum</text>
    <text x="36" y="138" font-size="13" fill="#a9bdd7" text-anchor="start">A quick view of which bots ship today, how complex they are, and how</text><text x="36" y="156" font-size="13" fill="#a9bdd7" text-anchor="start">expensive their worst-case turns can get.</text>
  <rect x="36" y="28" width="162" height="44" rx="16" fill="#101d32" stroke="rgba(255,255,255,0.08)" stroke-width="1" /><text x="54" y="48" font-size="11" fill="#a9bdd7" letter-spacing="1.4">BUILT-IN</text><text x="54" y="63" font-size="16" fill="#6ee7ff" font-weight="700">12</text><rect x="214" y="28" width="162" height="44" rx="16" fill="#101d32" stroke="rgba(255,255,255,0.08)" stroke-width="1" /><text x="232" y="48" font-size="11" fill="#a9bdd7" letter-spacing="1.4">ENABLED</text><text x="232" y="63" font-size="16" fill="#34d399" font-weight="700">9</text><rect x="392" y="28" width="162" height="44" rx="16" fill="#101d32" stroke="rgba(255,255,255,0.08)" stroke-width="1" /><text x="410" y="48" font-size="11" fill="#a9bdd7" letter-spacing="1.4">EXTERNAL-READY</text><text x="410" y="63" font-size="16" fill="#8b5cf6" font-weight="700">v6</text>
  <text x="324" y="166" text-anchor="middle" font-size="13" fill="#a9bdd7" letter-spacing="1.1">LOW</text><line x1="324" y1="176" x2="324" y2="506" stroke="rgba(255,255,255,0.08)" stroke-dasharray="4 8" /><text x="476" y="166" text-anchor="middle" font-size="13" fill="#a9bdd7" letter-spacing="1.1">MEDIUM</text><line x1="476" y1="176" x2="476" y2="506" stroke="rgba(255,255,255,0.08)" stroke-dasharray="4 8" /><text x="628" y="166" text-anchor="middle" font-size="13" fill="#a9bdd7" letter-spacing="1.1">HIGH</text><line x1="628" y1="176" x2="628" y2="506" stroke="rgba(255,255,255,0.08)" stroke-dasharray="4 8" />
  <text x="44" y="192" font-size="13" fill="#eff6ff" font-weight="600">DummyBot</text><rect x="272" y="174" width="104" height="22" rx="11" fill="#6ee7ff" fill-opacity="0.18" stroke="#6ee7ff" stroke-opacity="0.45" /><text x="324" y="188" text-anchor="middle" font-size="11" fill="#6ee7ff" font-weight="700">Low</text><text x="686" y="192" text-anchor="end" font-size="11" fill="#a9bdd7">O(n)</text><rect x="698" y="175" width="48" height="20" rx="10" fill="rgba(255,255,255,0.14)" fill-opacity="0.18" stroke="rgba(255,255,255,0.14)" stroke-opacity="0.45" /><text x="722" y="189" text-anchor="middle" font-size="9" fill="rgba(255,255,255,0.14)" font-weight="700">DISABLED</text><text x="44" y="220" font-size="13" fill="#eff6ff" font-weight="600">XrzBot</text><rect x="272" y="202" width="104" height="22" rx="11" fill="#6ee7ff" fill-opacity="0.18" stroke="#6ee7ff" stroke-opacity="0.45" /><text x="324" y="216" text-anchor="middle" font-size="11" fill="#6ee7ff" font-weight="700">Low</text><text x="686" y="220" text-anchor="end" font-size="11" fill="#a9bdd7">O(n)</text><rect x="698" y="203" width="48" height="20" rx="10" fill="rgba(255,255,255,0.14)" fill-opacity="0.18" stroke="rgba(255,255,255,0.14)" stroke-opacity="0.45" /><text x="722" y="217" text-anchor="middle" font-size="9" fill="rgba(255,255,255,0.14)" font-weight="700">DISABLED</text><text x="44" y="248" font-size="13" fill="#eff6ff" font-weight="600">SmartRandomBot</text><rect x="272" y="230" width="104" height="22" rx="11" fill="#6ee7ff" fill-opacity="0.18" stroke="#6ee7ff" stroke-opacity="0.45" /><text x="324" y="244" text-anchor="middle" font-size="11" fill="#6ee7ff" font-weight="700">Low</text><text x="686" y="248" text-anchor="end" font-size="11" fill="#a9bdd7">O(n)</text><rect x="698" y="231" width="48" height="20" rx="10" fill="#34d399" fill-opacity="0.18" stroke="#34d399" stroke-opacity="0.45" /><text x="722" y="245" text-anchor="middle" font-size="9" fill="#34d399" font-weight="700">ENABLED</text><text x="44" y="276" font-size="13" fill="#eff6ff" font-weight="600">GcBot</text><rect x="424" y="258" width="104" height="22" rx="11" fill="#fbbf24" fill-opacity="0.18" stroke="#fbbf24" stroke-opacity="0.45" /><text x="476" y="272" text-anchor="middle" font-size="11" fill="#fbbf24" font-weight="700">Medium</text><text x="686" y="276" text-anchor="end" font-size="11" fill="#a9bdd7">O(n)</text><rect x="698" y="259" width="48" height="20" rx="10" fill="#34d399" fill-opacity="0.18" stroke="#34d399" stroke-opacity="0.45" /><text x="722" y="273" text-anchor="middle" font-size="9" fill="#34d399" font-weight="700">ENABLED</text><text x="44" y="304" font-size="13" fill="#eff6ff" font-weight="600">SzlyBot</text><rect x="424" y="286" width="104" height="22" rx="11" fill="#fbbf24" fill-opacity="0.18" stroke="#fbbf24" stroke-opacity="0.45" /><text x="476" y="300" text-anchor="middle" font-size="11" fill="#fbbf24" font-weight="700">Medium</text><text x="686" y="304" text-anchor="end" font-size="11" fill="#a9bdd7">O(n)</text><rect x="698" y="287" width="48" height="20" rx="10" fill="#34d399" fill-opacity="0.18" stroke="#34d399" stroke-opacity="0.45" /><text x="722" y="301" text-anchor="middle" font-size="9" fill="#34d399" font-weight="700">ENABLED</text><text x="44" y="332" font-size="13" fill="#eff6ff" font-weight="600">ZlyBot</text><rect x="424" y="314" width="104" height="22" rx="11" fill="#fbbf24" fill-opacity="0.18" stroke="#fbbf24" stroke-opacity="0.45" /><text x="476" y="328" text-anchor="middle" font-size="11" fill="#fbbf24" font-weight="700">Medium</text><text x="686" y="332" text-anchor="end" font-size="11" fill="#a9bdd7">O(n)</text><rect x="698" y="315" width="48" height="20" rx="10" fill="#34d399" fill-opacity="0.18" stroke="#34d399" stroke-opacity="0.45" /><text x="722" y="329" text-anchor="middle" font-size="9" fill="#34d399" font-weight="700">ENABLED</text><text x="44" y="360" font-size="13" fill="#eff6ff" font-weight="600">ZlyBot v2</text><rect x="424" y="342" width="104" height="22" rx="11" fill="#fbbf24" fill-opacity="0.18" stroke="#fbbf24" stroke-opacity="0.45" /><text x="476" y="356" text-anchor="middle" font-size="11" fill="#fbbf24" font-weight="700">Medium</text><text x="686" y="360" text-anchor="end" font-size="11" fill="#a9bdd7">O(n log n)</text><rect x="698" y="343" width="48" height="20" rx="10" fill="#34d399" fill-opacity="0.18" stroke="#34d399" stroke-opacity="0.45" /><text x="722" y="357" text-anchor="middle" font-size="9" fill="#34d399" font-weight="700">ENABLED</text><text x="44" y="388" font-size="13" fill="#eff6ff" font-weight="600">ZlyBot v2.1</text><rect x="424" y="370" width="104" height="22" rx="11" fill="#fbbf24" fill-opacity="0.18" stroke="#fbbf24" stroke-opacity="0.45" /><text x="476" y="384" text-anchor="middle" font-size="11" fill="#fbbf24" font-weight="700">Medium</text><text x="686" y="388" text-anchor="end" font-size="11" fill="#a9bdd7">O(n log n)</text><rect x="698" y="371" width="48" height="20" rx="10" fill="#34d399" fill-opacity="0.18" stroke="#34d399" stroke-opacity="0.45" /><text x="722" y="385" text-anchor="middle" font-size="9" fill="#34d399" font-weight="700">ENABLED</text><text x="44" y="416" font-size="13" fill="#eff6ff" font-weight="600">LyBot</text><rect x="576" y="398" width="104" height="22" rx="11" fill="#fb7185" fill-opacity="0.18" stroke="#fb7185" stroke-opacity="0.45" /><text x="628" y="412" text-anchor="middle" font-size="11" fill="#fb7185" font-weight="700">High</text><text x="686" y="416" text-anchor="end" font-size="11" fill="#a9bdd7">O(n^2)</text><rect x="698" y="399" width="48" height="20" rx="10" fill="rgba(255,255,255,0.14)" fill-opacity="0.18" stroke="rgba(255,255,255,0.14)" stroke-opacity="0.45" /><text x="722" y="413" text-anchor="middle" font-size="9" fill="rgba(255,255,255,0.14)" font-weight="700">DISABLED</text><text x="44" y="444" font-size="13" fill="#eff6ff" font-weight="600">KutuBot</text><rect x="576" y="426" width="104" height="22" rx="11" fill="#fb7185" fill-opacity="0.18" stroke="#fb7185" stroke-opacity="0.45" /><text x="628" y="440" text-anchor="middle" font-size="11" fill="#fb7185" font-weight="700">High</text><text x="686" y="444" text-anchor="end" font-size="11" fill="#a9bdd7">O(n log n)</text><rect x="698" y="427" width="48" height="20" rx="10" fill="#34d399" fill-opacity="0.18" stroke="#34d399" stroke-opacity="0.45" /><text x="722" y="441" text-anchor="middle" font-size="9" fill="#34d399" font-weight="700">ENABLED</text><text x="44" y="472" font-size="13" fill="#eff6ff" font-weight="600">XiaruizeBot</text><rect x="576" y="454" width="104" height="22" rx="11" fill="#fb7185" fill-opacity="0.18" stroke="#fb7185" stroke-opacity="0.45" /><text x="628" y="468" text-anchor="middle" font-size="11" fill="#fb7185" font-weight="700">High</text><text x="686" y="472" text-anchor="end" font-size="11" fill="#a9bdd7">O(kn^2)</text><rect x="698" y="455" width="48" height="20" rx="10" fill="#34d399" fill-opacity="0.18" stroke="#34d399" stroke-opacity="0.45" /><text x="722" y="469" text-anchor="middle" font-size="9" fill="#34d399" font-weight="700">ENABLED</text><text x="44" y="500" font-size="13" fill="#eff6ff" font-weight="600">oimBot</text><rect x="576" y="482" width="104" height="22" rx="11" fill="#fb7185" fill-opacity="0.18" stroke="#fb7185" stroke-opacity="0.45" /><text x="628" y="496" text-anchor="middle" font-size="11" fill="#fb7185" font-weight="700">High</text><text x="686" y="500" text-anchor="end" font-size="11" fill="#a9bdd7">O(n^3)</text><rect x="698" y="483" width="48" height="20" rx="10" fill="#34d399" fill-opacity="0.18" stroke="#34d399" stroke-opacity="0.45" /><text x="722" y="497" text-anchor="middle" font-size="9" fill="#34d399" font-weight="700">ENABLED</text>
    <text x="686" y="166" text-anchor="end" font-size="13" fill="#a9bdd7" letter-spacing="1.1">TIME</text>
    <text x="722" y="166" text-anchor="middle" font-size="13" fill="#a9bdd7" letter-spacing="1.1">STATUS</text>
    <text x="36" y="536" font-size="12" fill="#a9bdd7">Derived from the upstream built-in bot README and contribution guide.</text>

</svg>
